PathFileType	4	(X/Y/Z)	Patient4_TMGait_0pt4_03_right_24.trc.trc
DataRate	CameraRate	NumFrames	NumMarkers	Units	OrigDataRate	OrigDataStartFrame	OrigNumFrames
72.916666666667	72.916666666667	4	33	mm	72.916666666667	53	       141
Frame#	Time	Sacral			L.Shoulder			Chest			R.Shoulder			Neck			R.ASIS			L.ASIS			R.Thigh.Superior			R.Thigh.Lateral			R.Thigh.Inferior			R.Patella			L.Thigh.Superior			L.Thigh.Lateral			L.Thigh.Inferior			L.Patella			L.Shank.Superior			L.Shank.Lateral			L.Shank.Inferior			R.Shank.Superior			R.Shank.Lateral			R.Shank.Inferior			R.Heel			R.Midfoot.Superior			R.Midfoot.Lateral			R.Toe			L.Heel			L.Midfoot.Lateral			L.Midfoot.Superior			L.Toe			L.Elbow			L.Wrist			R.Elbow			R.Wrist			
		X1	Y1	Z1	X2	Y2	Z2	X3	Y3	Z3	X4	Y4	Z4	X5	Y5	Z5	X6	Y6	Z6	X7	Y7	Z7	X8	Y8	Z8	X9	Y9	Z9	X10	Y10	Z10	X11	Y11	Z11	X12	Y12	Z12	X13	Y13	Z13	X14	Y14	Z14	X15	Y15	Z15	X16	Y16	Z16	X17	Y17	Z17	X18	Y18	Z18	X19	Y19	Z19	X20	Y20	Z20	X21	Y21	Z21	X22	Y22	Z22	X23	Y23	Z23	X24	Y24	Z24	X25	Y25	Z25	X26	Y26	Z26	X27	Y27	Z27	X28	Y28	Z28	X29	Y29	Z29	X30	Y30	Z30	X31	Y31	Z31	X32	Y32	Z32	X33	Y33	Z33	

53	31.543142857143	813.258574698643	1004.942929135469	533.489766363143	964.959392687186	1440.676456132900	349.394683194288	1085.284684562247	1372.314180216605	497.810924205122	1020.266516851146	1438.812240084046	682.205343981882	962.598722956653	1499.592981959786	506.626882532338	1051.105737053464	942.080090639307	629.015186243519	1014.091104611178	973.923116580175	357.607338750508	1081.110430544539	739.164830447517	596.944874223546	997.530647838597	632.567253466547	662.320428169802	1069.160463960189	577.909685467561	580.457304743170	1064.668399494402	490.409873096384	587.908163151489	1102.719790318508	791.737678751482	374.782918245469	1055.853763424475	665.679017029539	293.198167228046	1164.478620270332	605.275799904186	342.886570929435	1181.587756398271	521.362909071893	331.874912457930	1128.391662801450	448.892791910634	323.070936162446	998.520641910027	378.627235293776	276.721205408682	1019.929253897680	246.618471322907	322.517473185213	1032.749255678072	402.293801922726	595.800162833130	956.209433414331	301.333953150739	655.045020172407	996.329654050470	204.936495416583	593.399204767191	859.550881678858	42.854465400659	556.880407810692	1026.947763549241	96.228127300792	605.221979844837	937.080161999456	36.766976661158	638.020223193804	1145.450311856868	44.563882882849	643.135939887766	854.167915373638	138.091053679984	363.661541651880	914.890063719854	111.031718293879	277.987852257284	1016.307984331304	141.557505502920	295.836475165289	1114.693550688806	52.148442397805	256.061369887216	881.816493844000	1095.693339478268	241.600450426848	915.189377984197	836.877799366117	217.725523260004	1086.890698494142	1105.573540800630	818.194047297092	1329.992844513868	1032.904865917614	780.368244999809	
54	31.556857142857	812.711004273058	1006.119687873717	535.410558702559	964.091780473142	1441.207481544840	350.308147994556	1085.714275851117	1372.442967650905	497.461538474263	1022.807820232020	1439.215631322186	682.508302977956	963.480006891585	1500.010990568247	507.480312195931	1051.009254718227	942.079097765813	628.711401159971	1011.912830528586	974.602443618399	357.606558076263	1078.019107731476	738.522319428380	596.200707082717	993.607133769579	632.910713140923	662.615188631894	1063.548843746217	577.412427874449	580.174556027282	1058.077094583942	490.470302351593	587.801911516034	1100.409325620534	792.817426461326	375.043881830694	1053.673689234791	666.673383362073	293.485603489374	1162.040477856662	606.429829214119	343.547462268040	1180.421298148800	524.279006582712	332.517282071601	1131.022510331989	451.160332736881	323.078915548257	1006.280417671524	373.144455862344	275.932748033670	1036.275591562531	242.417660062832	320.898606162305	1026.459210532395	402.467940276537	595.839939164907	950.129182755084	301.395604397034	655.208074783120	990.481799401557	205.071187226534	593.448611125697	853.969927407631	42.794300610230	556.888888091459	1021.342195179468	96.239689155702	605.245971312967	931.494712077665	36.703165228821	637.986615699760	1139.841148842071	44.675130457213	643.167657322249	878.380641375751	123.155294285568	361.549124633992	940.512279707896	100.483896710036	275.616702143723	1039.789027521103	137.163403119806	293.486819925833	1143.511918197969	54.556986758171	253.075829012382	878.235075703730	1096.518149613266	243.816397111872	909.638922377190	837.455407016735	220.004871996719	1093.572916798033	1106.843033829912	817.383359397290	1338.593902138218	1045.759505664864	774.986485906963	
55	31.570571428571	812.157566923099	1007.166978946441	537.155319842274	963.387719482869	1441.566269266037	351.056269808808	1086.221088193259	1372.368645736796	496.988077830868	1025.360039895035	1439.433325481970	682.632618909806	964.465458280857	1500.249707239540	508.206988211966	1050.907687200288	941.939889358600	628.301157487042	1009.785659112049	975.033234465711	357.491516926941	1074.976380176915	737.810445915615	595.451387795731	989.818601038826	633.170669030700	662.880108316717	1058.081207127918	576.875531259396	579.885352379193	1051.695315224186	490.480945793966	587.716906093758	1097.647740756326	793.147139128935	375.180646568309	1050.760250827384	667.111730498924	293.574090279329	1158.555553065743	606.668377412001	344.341184063478	1178.106752795116	526.532955963003	333.256107729931	1132.687753129120	453.090493101741	323.137751198591	1013.836218156926	367.313208102726	275.033936556047	1052.598010116014	238.496243670639	319.350720582443	1020.321713541451	402.587102010012	595.869223686490	944.182329678472	301.428730595252	655.381297479012	984.675713042373	205.158736243684	593.491420880001	848.391044734994	42.732476573892	556.905737010444	1015.733555225808	96.243052035707	605.270326768750	925.912184147336	36.641489578226	637.967179369888	1134.235698439494	44.776892817217	643.191749797834	903.457687478083	108.782824742353	359.467085164052	966.885972262183	90.455907827662	273.400767456058	1063.624278248072	133.289106394233	291.296984057032	1172.415987726325	57.735243613912	250.562563857336	875.163749504382	1097.174015729381	245.646383061827	904.998489467372	837.921486151467	221.816711205357	1100.059365212546	1107.888038378970	816.266878162541	1346.322950716264	1058.217112331641	769.344157695788	
56	31.584285714286	811.620616948982	1008.058443822705	538.713147766275	962.860306698284	1441.748237841535	351.618603789918	1086.799838177120	1372.090796290821	496.391801552704	1027.885635798974	1439.462649367187	682.571390651494	965.541010827550	1500.311936742165	508.777966533480	1050.816303970867	941.674173762061	627.802143547454	1007.739524916231	975.201770581694	357.272772651066	1072.044036811182	737.039489389919	594.720437532850	986.218663650734	633.337121881773	663.112102300410	1052.842830004512	576.297656533403	579.597119791683	1045.603226925332	490.420378719316	587.649960246866	1094.486991576805	792.749252902328	375.211663338910	1047.221346865458	667.027814610160	293.454111135955	1154.170206616446	606.064675026595	345.243580286098	1174.800686440466	528.157147794356	334.079529526499	1133.463120949600	454.711462956914	323.256066052363	1021.149765620745	361.383772305240	274.059322019729	1068.606908633077	235.098425783295	317.961099282606	1014.403626976194	402.639291115184	595.887662297235	938.418099548327	301.434889870391	655.564161943865	978.936646980640	205.194088026341	593.530105644199	842.819012231175	42.673780827857	556.934030829386	1010.126645248105	96.235876949938	605.295167058071	920.335867060521	36.584349592965	637.961876679980	1128.639591775246	44.860208969620	643.209310526385	928.891589039261	95.516751231320	357.515843885233	993.521738297796	81.351259268371	271.474170177656	1087.362768134531	130.196314011657	289.395889589325	1200.843282371877	61.773278532304	248.732825634803	872.567914706897	1097.656536557200	247.080321808232	901.251085099595	838.262867099660	223.138008770443	1106.350904409753	1108.705561395372	814.856040850450	1353.215824465449	1070.151726957425	763.496787713007	
